<mxfile host="app.diagrams.net" agent="Mozilla/5.0 (Windows NT 10.0; Win64; x64) AppleWebKit/537.36 (KHTML, like Gecko) Chrome/138.0.0.0 Safari/537.36" version="28.0.7">
  <diagram name="Страница — 1" id="NA3BVg85IGSfQwxQjvxF">
    <mxGraphModel dx="2722" dy="2127" grid="1" gridSize="10" guides="1" tooltips="1" connect="1" arrows="1" fold="1" page="1" pageScale="1" pageWidth="827" pageHeight="1169" math="0" shadow="0">
      <root>
        <mxCell id="0" />
        <mxCell id="1" parent="0" />
        <mxCell id="JyCHwe7BsAMhI3vTmwrP-1" value="Процесс взаимодействия пользователя с ботом" style="swimlane;html=1;startSize=20;fontStyle=0;collapsible=0;horizontal=1;swimlaneLine=1;strokeWidth=2;swimlaneFillColor=#ffffff;whiteSpace=wrap;" vertex="1" parent="1">
          <mxGeometry x="-50" y="-30" width="2200" height="680" as="geometry" />
        </mxCell>
        <mxCell id="JyCHwe7BsAMhI3vTmwrP-2" value="AI-агент" style="swimlane;html=1;startSize=20;fontStyle=0;collapsible=0;horizontal=0;swimlaneLine=1;swimlaneFillColor=#ffffff;strokeWidth=2;whiteSpace=wrap;" vertex="1" parent="JyCHwe7BsAMhI3vTmwrP-1">
          <mxGeometry y="320" width="2200" height="360" as="geometry" />
        </mxCell>
        <mxCell id="JyCHwe7BsAMhI3vTmwrP-3" value="Получить запрос на уведомление" style="points=[[0.25,0,0],[0.5,0,0],[0.75,0,0],[1,0.25,0],[1,0.5,0],[1,0.75,0],[0.75,1,0],[0.5,1,0],[0.25,1,0],[0,0.75,0],[0,0.5,0],[0,0.25,0]];shape=mxgraph.bpmn.task2;whiteSpace=wrap;rectStyle=rounded;size=10;html=1;container=1;expand=0;collapsible=0;taskMarker=abstract;" vertex="1" parent="JyCHwe7BsAMhI3vTmwrP-2">
          <mxGeometry x="680" y="125" width="120" height="80" as="geometry" />
        </mxCell>
        <mxCell id="JyCHwe7BsAMhI3vTmwrP-4" value="Обработать запрос" style="points=[[0.25,0,0],[0.5,0,0],[0.75,0,0],[1,0.25,0],[1,0.5,0],[1,0.75,0],[0.75,1,0],[0.5,1,0],[0.25,1,0],[0,0.75,0],[0,0.5,0],[0,0.25,0]];shape=mxgraph.bpmn.task2;whiteSpace=wrap;rectStyle=rounded;size=10;html=1;container=1;expand=0;collapsible=0;taskMarker=abstract;" vertex="1" parent="JyCHwe7BsAMhI3vTmwrP-2">
          <mxGeometry x="877" y="125" width="120" height="80" as="geometry" />
        </mxCell>
        <mxCell id="JyCHwe7BsAMhI3vTmwrP-5" style="edgeStyle=orthogonalEdgeStyle;rounded=0;orthogonalLoop=1;jettySize=auto;html=1;entryX=0;entryY=0.5;entryDx=0;entryDy=0;entryPerimeter=0;" edge="1" parent="JyCHwe7BsAMhI3vTmwrP-2" source="JyCHwe7BsAMhI3vTmwrP-3" target="JyCHwe7BsAMhI3vTmwrP-4">
          <mxGeometry relative="1" as="geometry" />
        </mxCell>
        <mxCell id="JyCHwe7BsAMhI3vTmwrP-6" style="edgeStyle=orthogonalEdgeStyle;rounded=0;orthogonalLoop=1;jettySize=auto;html=1;entryX=0;entryY=0.5;entryDx=0;entryDy=0;entryPerimeter=0;" edge="1" parent="JyCHwe7BsAMhI3vTmwrP-2" source="JyCHwe7BsAMhI3vTmwrP-4" target="JyCHwe7BsAMhI3vTmwrP-8">
          <mxGeometry relative="1" as="geometry">
            <mxPoint x="1090" y="110" as="targetPoint" />
          </mxGeometry>
        </mxCell>
        <mxCell id="JyCHwe7BsAMhI3vTmwrP-7" style="edgeStyle=orthogonalEdgeStyle;rounded=0;orthogonalLoop=1;jettySize=auto;html=1;entryX=0;entryY=0.5;entryDx=0;entryDy=0;entryPerimeter=0;" edge="1" parent="JyCHwe7BsAMhI3vTmwrP-2" source="JyCHwe7BsAMhI3vTmwrP-8" target="JyCHwe7BsAMhI3vTmwrP-14">
          <mxGeometry relative="1" as="geometry">
            <mxPoint x="1230.5" y="160" as="targetPoint" />
          </mxGeometry>
        </mxCell>
        <mxCell id="JyCHwe7BsAMhI3vTmwrP-8" value="Растение есть в БД?" style="points=[[0.25,0.25,0],[0.5,0,0],[0.75,0.25,0],[1,0.5,0],[0.75,0.75,0],[0.5,1,0],[0.25,0.75,0],[0,0.5,0]];shape=mxgraph.bpmn.gateway2;html=1;verticalLabelPosition=bottom;labelBackgroundColor=#ffffff;verticalAlign=top;align=center;perimeter=rhombusPerimeter;outlineConnect=0;outline=none;symbol=none;gwType=exclusive;" vertex="1" parent="JyCHwe7BsAMhI3vTmwrP-2">
          <mxGeometry x="1080" y="180" width="50" height="50" as="geometry" />
        </mxCell>
        <mxCell id="JyCHwe7BsAMhI3vTmwrP-9" value="Предложить добавить растение" style="points=[[0.25,0,0],[0.5,0,0],[0.75,0,0],[1,0.25,0],[1,0.5,0],[1,0.75,0],[0.75,1,0],[0.5,1,0],[0.25,1,0],[0,0.75,0],[0,0.5,0],[0,0.25,0]];shape=mxgraph.bpmn.task2;whiteSpace=wrap;rectStyle=rounded;size=10;html=1;container=1;expand=0;collapsible=0;taskMarker=abstract;" vertex="1" parent="JyCHwe7BsAMhI3vTmwrP-2">
          <mxGeometry x="1200" y="30" width="120" height="70" as="geometry" />
        </mxCell>
        <mxCell id="JyCHwe7BsAMhI3vTmwrP-10" style="edgeStyle=orthogonalEdgeStyle;rounded=0;orthogonalLoop=1;jettySize=auto;html=1;exitX=0.5;exitY=0;exitDx=0;exitDy=0;exitPerimeter=0;entryX=0;entryY=0.5;entryDx=0;entryDy=0;entryPerimeter=0;" edge="1" parent="JyCHwe7BsAMhI3vTmwrP-2" source="JyCHwe7BsAMhI3vTmwrP-8" target="JyCHwe7BsAMhI3vTmwrP-9">
          <mxGeometry relative="1" as="geometry" />
        </mxCell>
        <mxCell id="JyCHwe7BsAMhI3vTmwrP-11" value="Нет" style="text;html=1;strokeColor=none;fillColor=none;align=center;verticalAlign=middle;whiteSpace=wrap;rounded=0;" vertex="1" parent="JyCHwe7BsAMhI3vTmwrP-2">
          <mxGeometry x="1120" y="40" width="80" height="30" as="geometry" />
        </mxCell>
        <mxCell id="JyCHwe7BsAMhI3vTmwrP-12" value="Да" style="text;html=1;strokeColor=none;fillColor=none;align=center;verticalAlign=middle;whiteSpace=wrap;rounded=0;" vertex="1" parent="JyCHwe7BsAMhI3vTmwrP-2">
          <mxGeometry x="1120" y="165" width="80" height="30" as="geometry" />
        </mxCell>
        <mxCell id="JyCHwe7BsAMhI3vTmwrP-13" style="edgeStyle=orthogonalEdgeStyle;rounded=0;orthogonalLoop=1;jettySize=auto;html=1;" edge="1" parent="JyCHwe7BsAMhI3vTmwrP-2" source="JyCHwe7BsAMhI3vTmwrP-14" target="JyCHwe7BsAMhI3vTmwrP-19">
          <mxGeometry relative="1" as="geometry" />
        </mxCell>
        <mxCell id="JyCHwe7BsAMhI3vTmwrP-14" value="" style="points=[[0.25,0.25,0],[0.5,0,0],[0.75,0.25,0],[1,0.5,0],[0.75,0.75,0],[0.5,1,0],[0.25,0.75,0],[0,0.5,0]];shape=mxgraph.bpmn.gateway2;html=1;verticalLabelPosition=bottom;labelBackgroundColor=#ffffff;verticalAlign=top;align=center;perimeter=rhombusPerimeter;outlineConnect=0;outline=none;symbol=none;gwType=exclusive;" vertex="1" parent="JyCHwe7BsAMhI3vTmwrP-2">
          <mxGeometry x="1235" y="180" width="50" height="50" as="geometry" />
        </mxCell>
        <mxCell id="JyCHwe7BsAMhI3vTmwrP-15" value="Запрос понятен и без ошибок?" style="text;html=1;strokeColor=none;fillColor=none;align=center;verticalAlign=middle;whiteSpace=wrap;rounded=0;" vertex="1" parent="JyCHwe7BsAMhI3vTmwrP-2">
          <mxGeometry x="1220" y="240" width="80" height="30" as="geometry" />
        </mxCell>
        <mxCell id="JyCHwe7BsAMhI3vTmwrP-16" value="Добавить уведомление в таблицу" style="points=[[0.25,0,0],[0.5,0,0],[0.75,0,0],[1,0.25,0],[1,0.5,0],[1,0.75,0],[0.75,1,0],[0.5,1,0],[0.25,1,0],[0,0.75,0],[0,0.5,0],[0,0.25,0]];shape=mxgraph.bpmn.task2;whiteSpace=wrap;rectStyle=rounded;size=10;html=1;container=1;expand=0;collapsible=0;taskMarker=abstract;" vertex="1" parent="JyCHwe7BsAMhI3vTmwrP-2">
          <mxGeometry x="1410" y="80" width="120" height="80" as="geometry" />
        </mxCell>
        <mxCell id="JyCHwe7BsAMhI3vTmwrP-17" style="edgeStyle=orthogonalEdgeStyle;rounded=0;orthogonalLoop=1;jettySize=auto;html=1;entryX=0;entryY=0.5;entryDx=0;entryDy=0;entryPerimeter=0;exitX=0.5;exitY=0;exitDx=0;exitDy=0;exitPerimeter=0;" edge="1" parent="JyCHwe7BsAMhI3vTmwrP-2" source="JyCHwe7BsAMhI3vTmwrP-14" target="JyCHwe7BsAMhI3vTmwrP-16">
          <mxGeometry relative="1" as="geometry" />
        </mxCell>
        <mxCell id="JyCHwe7BsAMhI3vTmwrP-18" value="Да" style="text;html=1;strokeColor=none;fillColor=none;align=center;verticalAlign=middle;whiteSpace=wrap;rounded=0;" vertex="1" parent="JyCHwe7BsAMhI3vTmwrP-2">
          <mxGeometry x="1330" y="90" width="80" height="30" as="geometry" />
        </mxCell>
        <mxCell id="JyCHwe7BsAMhI3vTmwrP-19" value="Сообщить об ошибке" style="points=[[0.25,0,0],[0.5,0,0],[0.75,0,0],[1,0.25,0],[1,0.5,0],[1,0.75,0],[0.75,1,0],[0.5,1,0],[0.25,1,0],[0,0.75,0],[0,0.5,0],[0,0.25,0]];shape=mxgraph.bpmn.task2;whiteSpace=wrap;rectStyle=rounded;size=10;html=1;container=1;expand=0;collapsible=0;taskMarker=abstract;" vertex="1" parent="JyCHwe7BsAMhI3vTmwrP-2">
          <mxGeometry x="1410" y="230" width="120" height="80" as="geometry" />
        </mxCell>
        <mxCell id="JyCHwe7BsAMhI3vTmwrP-20" value="Нет" style="text;html=1;strokeColor=none;fillColor=none;align=center;verticalAlign=middle;whiteSpace=wrap;rounded=0;" vertex="1" parent="JyCHwe7BsAMhI3vTmwrP-2">
          <mxGeometry x="1285" y="175" width="80" height="30" as="geometry" />
        </mxCell>
        <mxCell id="JyCHwe7BsAMhI3vTmwrP-21" value="Отправить подтверждение пользователю" style="points=[[0.25,0,0],[0.5,0,0],[0.75,0,0],[1,0.25,0],[1,0.5,0],[1,0.75,0],[0.75,1,0],[0.5,1,0],[0.25,1,0],[0,0.75,0],[0,0.5,0],[0,0.25,0]];shape=mxgraph.bpmn.task2;whiteSpace=wrap;rectStyle=rounded;size=10;html=1;container=1;expand=0;collapsible=0;taskMarker=abstract;" vertex="1" parent="JyCHwe7BsAMhI3vTmwrP-2">
          <mxGeometry x="1620" y="80" width="120" height="80" as="geometry" />
        </mxCell>
        <mxCell id="JyCHwe7BsAMhI3vTmwrP-22" style="edgeStyle=orthogonalEdgeStyle;rounded=0;orthogonalLoop=1;jettySize=auto;html=1;entryX=0;entryY=0.5;entryDx=0;entryDy=0;entryPerimeter=0;" edge="1" parent="JyCHwe7BsAMhI3vTmwrP-2" source="JyCHwe7BsAMhI3vTmwrP-16" target="JyCHwe7BsAMhI3vTmwrP-21">
          <mxGeometry relative="1" as="geometry" />
        </mxCell>
        <mxCell id="JyCHwe7BsAMhI3vTmwrP-23" value="" style="points=[[0.145,0.145,0],[0.5,0,0],[0.855,0.145,0],[1,0.5,0],[0.855,0.855,0],[0.5,1,0],[0.145,0.855,0],[0,0.5,0]];shape=mxgraph.bpmn.event;html=1;verticalLabelPosition=bottom;labelBackgroundColor=#ffffff;verticalAlign=top;align=center;perimeter=ellipsePerimeter;outlineConnect=0;aspect=fixed;outline=end;symbol=terminate2;" vertex="1" parent="JyCHwe7BsAMhI3vTmwrP-2">
          <mxGeometry x="2130" y="25" width="50" height="50" as="geometry" />
        </mxCell>
        <mxCell id="JyCHwe7BsAMhI3vTmwrP-24" style="edgeStyle=orthogonalEdgeStyle;rounded=0;orthogonalLoop=1;jettySize=auto;html=1;" edge="1" parent="JyCHwe7BsAMhI3vTmwrP-2" source="JyCHwe7BsAMhI3vTmwrP-21">
          <mxGeometry relative="1" as="geometry">
            <mxPoint x="1840" y="120" as="targetPoint" />
          </mxGeometry>
        </mxCell>
        <mxCell id="JyCHwe7BsAMhI3vTmwrP-25" value="" style="points=[[0.145,0.145,0],[0.5,0,0],[0.855,0.145,0],[1,0.5,0],[0.855,0.855,0],[0.5,1,0],[0.145,0.855,0],[0,0.5,0]];shape=mxgraph.bpmn.event;html=1;verticalLabelPosition=bottom;labelBackgroundColor=#ffffff;verticalAlign=top;align=center;perimeter=ellipsePerimeter;outlineConnect=0;aspect=fixed;outline=end;symbol=terminate2;" vertex="1" parent="JyCHwe7BsAMhI3vTmwrP-2">
          <mxGeometry x="1600" y="245" width="50" height="50" as="geometry" />
        </mxCell>
        <mxCell id="JyCHwe7BsAMhI3vTmwrP-26" style="edgeStyle=orthogonalEdgeStyle;rounded=0;orthogonalLoop=1;jettySize=auto;html=1;entryX=0;entryY=0.5;entryDx=0;entryDy=0;entryPerimeter=0;" edge="1" parent="JyCHwe7BsAMhI3vTmwrP-2" source="JyCHwe7BsAMhI3vTmwrP-19" target="JyCHwe7BsAMhI3vTmwrP-25">
          <mxGeometry relative="1" as="geometry" />
        </mxCell>
        <mxCell id="JyCHwe7BsAMhI3vTmwrP-50" value="" style="points=[[0.25,0.25,0],[0.5,0,0],[0.75,0.25,0],[1,0.5,0],[0.75,0.75,0],[0.5,1,0],[0.25,0.75,0],[0,0.5,0]];shape=mxgraph.bpmn.gateway2;html=1;verticalLabelPosition=bottom;labelBackgroundColor=#ffffff;verticalAlign=top;align=center;perimeter=rhombusPerimeter;outlineConnect=0;outline=none;symbol=none;gwType=exclusive;" vertex="1" parent="JyCHwe7BsAMhI3vTmwrP-2">
          <mxGeometry x="1840" y="95" width="50" height="50" as="geometry" />
        </mxCell>
        <mxCell id="JyCHwe7BsAMhI3vTmwrP-58" style="edgeStyle=orthogonalEdgeStyle;rounded=0;orthogonalLoop=1;jettySize=auto;html=1;" edge="1" parent="JyCHwe7BsAMhI3vTmwrP-2" source="JyCHwe7BsAMhI3vTmwrP-51" target="JyCHwe7BsAMhI3vTmwrP-23">
          <mxGeometry relative="1" as="geometry" />
        </mxCell>
        <mxCell id="JyCHwe7BsAMhI3vTmwrP-51" value="Отправить уведомление" style="points=[[0.25,0,0],[0.5,0,0],[0.75,0,0],[1,0.25,0],[1,0.5,0],[1,0.75,0],[0.75,1,0],[0.5,1,0],[0.25,1,0],[0,0.75,0],[0,0.5,0],[0,0.25,0]];shape=mxgraph.bpmn.task2;whiteSpace=wrap;rectStyle=rounded;size=10;html=1;container=1;expand=0;collapsible=0;taskMarker=abstract;" vertex="1" parent="JyCHwe7BsAMhI3vTmwrP-2">
          <mxGeometry x="1970" y="10" width="120" height="80" as="geometry" />
        </mxCell>
        <mxCell id="JyCHwe7BsAMhI3vTmwrP-52" style="edgeStyle=orthogonalEdgeStyle;rounded=0;orthogonalLoop=1;jettySize=auto;html=1;entryX=0;entryY=0.5;entryDx=0;entryDy=0;entryPerimeter=0;exitX=0.5;exitY=0;exitDx=0;exitDy=0;exitPerimeter=0;" edge="1" parent="JyCHwe7BsAMhI3vTmwrP-2" source="JyCHwe7BsAMhI3vTmwrP-50" target="JyCHwe7BsAMhI3vTmwrP-51">
          <mxGeometry relative="1" as="geometry" />
        </mxCell>
        <mxCell id="JyCHwe7BsAMhI3vTmwrP-53" value="Ожидать наступления срока уведомления" style="points=[[0.25,0,0],[0.5,0,0],[0.75,0,0],[1,0.25,0],[1,0.5,0],[1,0.75,0],[0.75,1,0],[0.5,1,0],[0.25,1,0],[0,0.75,0],[0,0.5,0],[0,0.25,0]];shape=mxgraph.bpmn.task2;whiteSpace=wrap;rectStyle=rounded;size=10;html=1;container=1;expand=0;collapsible=0;taskMarker=abstract;" vertex="1" parent="JyCHwe7BsAMhI3vTmwrP-2">
          <mxGeometry x="1970" y="160" width="120" height="80" as="geometry" />
        </mxCell>
        <mxCell id="JyCHwe7BsAMhI3vTmwrP-54" style="edgeStyle=orthogonalEdgeStyle;rounded=0;orthogonalLoop=1;jettySize=auto;html=1;entryX=0;entryY=0.5;entryDx=0;entryDy=0;entryPerimeter=0;exitX=0.5;exitY=1;exitDx=0;exitDy=0;exitPerimeter=0;" edge="1" parent="JyCHwe7BsAMhI3vTmwrP-2" source="JyCHwe7BsAMhI3vTmwrP-50" target="JyCHwe7BsAMhI3vTmwrP-53">
          <mxGeometry relative="1" as="geometry" />
        </mxCell>
        <mxCell id="JyCHwe7BsAMhI3vTmwrP-55" value="Срок уведомления наступил?" style="text;html=1;strokeColor=none;fillColor=none;align=center;verticalAlign=middle;whiteSpace=wrap;rounded=0;" vertex="1" parent="JyCHwe7BsAMhI3vTmwrP-2">
          <mxGeometry x="1890" y="105" width="90" height="30" as="geometry" />
        </mxCell>
        <mxCell id="JyCHwe7BsAMhI3vTmwrP-56" value="Да" style="text;html=1;strokeColor=none;fillColor=none;align=center;verticalAlign=middle;whiteSpace=wrap;rounded=0;" vertex="1" parent="JyCHwe7BsAMhI3vTmwrP-2">
          <mxGeometry x="1880" y="20" width="80" height="30" as="geometry" />
        </mxCell>
        <mxCell id="JyCHwe7BsAMhI3vTmwrP-59" value="Нет" style="text;html=1;strokeColor=none;fillColor=none;align=center;verticalAlign=middle;whiteSpace=wrap;rounded=0;" vertex="1" parent="JyCHwe7BsAMhI3vTmwrP-2">
          <mxGeometry x="1880" y="165" width="80" height="30" as="geometry" />
        </mxCell>
        <mxCell id="JyCHwe7BsAMhI3vTmwrP-60" style="edgeStyle=orthogonalEdgeStyle;rounded=0;orthogonalLoop=1;jettySize=auto;html=1;entryX=0;entryY=0.5;entryDx=0;entryDy=0;entryPerimeter=0;exitX=0.5;exitY=1;exitDx=0;exitDy=0;exitPerimeter=0;" edge="1" parent="JyCHwe7BsAMhI3vTmwrP-2" source="JyCHwe7BsAMhI3vTmwrP-53" target="JyCHwe7BsAMhI3vTmwrP-50">
          <mxGeometry relative="1" as="geometry">
            <Array as="points">
              <mxPoint x="2030" y="280" />
              <mxPoint x="1820" y="280" />
              <mxPoint x="1820" y="120" />
            </Array>
          </mxGeometry>
        </mxCell>
        <mxCell id="JyCHwe7BsAMhI3vTmwrP-27" value="Пользователь" style="swimlane;html=1;startSize=20;fontStyle=0;collapsible=0;horizontal=0;swimlaneLine=1;swimlaneFillColor=#ffffff;strokeWidth=2;whiteSpace=wrap;" vertex="1" parent="JyCHwe7BsAMhI3vTmwrP-1">
          <mxGeometry y="20" width="2200" height="300" as="geometry" />
        </mxCell>
        <mxCell id="JyCHwe7BsAMhI3vTmwrP-28" style="edgeStyle=orthogonalEdgeStyle;rounded=0;orthogonalLoop=1;jettySize=auto;html=1;" edge="1" parent="JyCHwe7BsAMhI3vTmwrP-27" source="JyCHwe7BsAMhI3vTmwrP-29" target="JyCHwe7BsAMhI3vTmwrP-30">
          <mxGeometry relative="1" as="geometry" />
        </mxCell>
        <mxCell id="JyCHwe7BsAMhI3vTmwrP-29" value="Потребность&lt;div&gt;получать напоминания&lt;/div&gt;&lt;div&gt;по уходу за растениями&lt;/div&gt;" style="points=[[0.145,0.145,0],[0.5,0,0],[0.855,0.145,0],[1,0.5,0],[0.855,0.855,0],[0.5,1,0],[0.145,0.855,0],[0,0.5,0]];shape=mxgraph.bpmn.event;html=1;verticalLabelPosition=bottom;labelBackgroundColor=#ffffff;verticalAlign=top;align=center;perimeter=ellipsePerimeter;outlineConnect=0;aspect=fixed;outline=standard;symbol=general;" vertex="1" parent="JyCHwe7BsAMhI3vTmwrP-27">
          <mxGeometry x="80" y="55" width="50" height="50" as="geometry" />
        </mxCell>
        <mxCell id="JyCHwe7BsAMhI3vTmwrP-30" value="Войти в приложение" style="points=[[0.25,0,0],[0.5,0,0],[0.75,0,0],[1,0.25,0],[1,0.5,0],[1,0.75,0],[0.75,1,0],[0.5,1,0],[0.25,1,0],[0,0.75,0],[0,0.5,0],[0,0.25,0]];shape=mxgraph.bpmn.task2;whiteSpace=wrap;rectStyle=rounded;size=10;html=1;container=1;expand=0;collapsible=0;taskMarker=abstract;" vertex="1" parent="JyCHwe7BsAMhI3vTmwrP-27">
          <mxGeometry x="240" y="45" width="130" height="70" as="geometry" />
        </mxCell>
        <mxCell id="JyCHwe7BsAMhI3vTmwrP-31" value="Инициировать диалог с ботом" style="points=[[0.25,0,0],[0.5,0,0],[0.75,0,0],[1,0.25,0],[1,0.5,0],[1,0.75,0],[0.75,1,0],[0.5,1,0],[0.25,1,0],[0,0.75,0],[0,0.5,0],[0,0.25,0]];shape=mxgraph.bpmn.task2;whiteSpace=wrap;rectStyle=rounded;size=10;html=1;container=1;expand=0;collapsible=0;taskMarker=abstract;" vertex="1" parent="JyCHwe7BsAMhI3vTmwrP-27">
          <mxGeometry x="460" y="40" width="120" height="80" as="geometry" />
        </mxCell>
        <mxCell id="JyCHwe7BsAMhI3vTmwrP-32" style="edgeStyle=orthogonalEdgeStyle;rounded=0;orthogonalLoop=1;jettySize=auto;html=1;entryX=0;entryY=0.5;entryDx=0;entryDy=0;entryPerimeter=0;" edge="1" parent="JyCHwe7BsAMhI3vTmwrP-27" source="JyCHwe7BsAMhI3vTmwrP-30" target="JyCHwe7BsAMhI3vTmwrP-31">
          <mxGeometry relative="1" as="geometry" />
        </mxCell>
        <mxCell id="JyCHwe7BsAMhI3vTmwrP-33" value="Запросить отправку уведомления" style="points=[[0.25,0,0],[0.5,0,0],[0.75,0,0],[1,0.25,0],[1,0.5,0],[1,0.75,0],[0.75,1,0],[0.5,1,0],[0.25,1,0],[0,0.75,0],[0,0.5,0],[0,0.25,0]];shape=mxgraph.bpmn.task2;whiteSpace=wrap;rectStyle=rounded;size=10;html=1;container=1;expand=0;collapsible=0;taskMarker=abstract;" vertex="1" parent="JyCHwe7BsAMhI3vTmwrP-27">
          <mxGeometry x="680" y="42.5" width="120" height="75" as="geometry" />
        </mxCell>
        <mxCell id="JyCHwe7BsAMhI3vTmwrP-34" style="edgeStyle=orthogonalEdgeStyle;rounded=0;orthogonalLoop=1;jettySize=auto;html=1;entryX=0;entryY=0.5;entryDx=0;entryDy=0;entryPerimeter=0;" edge="1" parent="JyCHwe7BsAMhI3vTmwrP-27" source="JyCHwe7BsAMhI3vTmwrP-31" target="JyCHwe7BsAMhI3vTmwrP-33">
          <mxGeometry relative="1" as="geometry" />
        </mxCell>
        <mxCell id="JyCHwe7BsAMhI3vTmwrP-35" style="edgeStyle=orthogonalEdgeStyle;rounded=0;orthogonalLoop=1;jettySize=auto;html=1;" edge="1" parent="JyCHwe7BsAMhI3vTmwrP-27" source="JyCHwe7BsAMhI3vTmwrP-36" target="JyCHwe7BsAMhI3vTmwrP-42">
          <mxGeometry relative="1" as="geometry" />
        </mxCell>
        <mxCell id="JyCHwe7BsAMhI3vTmwrP-36" value="" style="points=[[0.25,0.25,0],[0.5,0,0],[0.75,0.25,0],[1,0.5,0],[0.75,0.75,0],[0.5,1,0],[0.25,0.75,0],[0,0.5,0]];shape=mxgraph.bpmn.gateway2;html=1;verticalLabelPosition=bottom;labelBackgroundColor=#ffffff;verticalAlign=top;align=center;perimeter=rhombusPerimeter;outlineConnect=0;outline=none;symbol=none;gwType=exclusive;" vertex="1" parent="JyCHwe7BsAMhI3vTmwrP-27">
          <mxGeometry x="1235" y="160" width="50" height="50" as="geometry" />
        </mxCell>
        <mxCell id="JyCHwe7BsAMhI3vTmwrP-37" value="Добавить растение?" style="text;html=1;strokeColor=none;fillColor=none;align=center;verticalAlign=middle;whiteSpace=wrap;rounded=0;" vertex="1" parent="JyCHwe7BsAMhI3vTmwrP-27">
          <mxGeometry x="1155" y="170" width="80" height="30" as="geometry" />
        </mxCell>
        <mxCell id="JyCHwe7BsAMhI3vTmwrP-38" value="" style="points=[[0.145,0.145,0],[0.5,0,0],[0.855,0.145,0],[1,0.5,0],[0.855,0.855,0],[0.5,1,0],[0.145,0.855,0],[0,0.5,0]];shape=mxgraph.bpmn.event;html=1;verticalLabelPosition=bottom;labelBackgroundColor=#ffffff;verticalAlign=top;align=center;perimeter=ellipsePerimeter;outlineConnect=0;aspect=fixed;outline=end;symbol=terminate2;" vertex="1" parent="JyCHwe7BsAMhI3vTmwrP-27">
          <mxGeometry x="1405" y="45" width="50" height="50" as="geometry" />
        </mxCell>
        <mxCell id="JyCHwe7BsAMhI3vTmwrP-39" style="edgeStyle=orthogonalEdgeStyle;rounded=0;orthogonalLoop=1;jettySize=auto;html=1;entryX=0;entryY=0.5;entryDx=0;entryDy=0;entryPerimeter=0;exitX=0.5;exitY=0;exitDx=0;exitDy=0;exitPerimeter=0;" edge="1" parent="JyCHwe7BsAMhI3vTmwrP-27" source="JyCHwe7BsAMhI3vTmwrP-36" target="JyCHwe7BsAMhI3vTmwrP-38">
          <mxGeometry relative="1" as="geometry" />
        </mxCell>
        <mxCell id="JyCHwe7BsAMhI3vTmwrP-40" value="Нет" style="text;html=1;strokeColor=none;fillColor=none;align=center;verticalAlign=middle;whiteSpace=wrap;rounded=0;" vertex="1" parent="JyCHwe7BsAMhI3vTmwrP-27">
          <mxGeometry x="1285" y="65" width="80" height="30" as="geometry" />
        </mxCell>
        <mxCell id="JyCHwe7BsAMhI3vTmwrP-41" style="edgeStyle=orthogonalEdgeStyle;rounded=0;orthogonalLoop=1;jettySize=auto;html=1;entryX=0;entryY=0.5;entryDx=0;entryDy=0;entryPerimeter=0;" edge="1" parent="JyCHwe7BsAMhI3vTmwrP-27" source="JyCHwe7BsAMhI3vTmwrP-42" target="JyCHwe7BsAMhI3vTmwrP-48">
          <mxGeometry relative="1" as="geometry">
            <mxPoint x="1580" y="280" as="targetPoint" />
          </mxGeometry>
        </mxCell>
        <mxCell id="JyCHwe7BsAMhI3vTmwrP-42" value="Перейти в карточку добавления растения" style="points=[[0.25,0,0],[0.5,0,0],[0.75,0,0],[1,0.25,0],[1,0.5,0],[1,0.75,0],[0.75,1,0],[0.5,1,0],[0.25,1,0],[0,0.75,0],[0,0.5,0],[0,0.25,0]];shape=mxgraph.bpmn.task2;whiteSpace=wrap;rectStyle=rounded;size=10;html=1;container=1;expand=0;collapsible=0;taskMarker=abstract;" vertex="1" parent="JyCHwe7BsAMhI3vTmwrP-27">
          <mxGeometry x="1370" y="145" width="120" height="80" as="geometry" />
        </mxCell>
        <mxCell id="JyCHwe7BsAMhI3vTmwrP-43" value="Да" style="text;html=1;strokeColor=none;fillColor=none;align=center;verticalAlign=middle;whiteSpace=wrap;rounded=0;" vertex="1" parent="JyCHwe7BsAMhI3vTmwrP-27">
          <mxGeometry x="1285" y="160" width="80" height="30" as="geometry" />
        </mxCell>
        <mxCell id="JyCHwe7BsAMhI3vTmwrP-48" value="Добавить растение" style="points=[[0.25,0,0],[0.5,0,0],[0.75,0,0],[1,0.25,0],[1,0.5,0],[1,0.75,0],[0.75,1,0],[0.5,1,0],[0.25,1,0],[0,0.75,0],[0,0.5,0],[0,0.25,0]];shape=mxgraph.bpmn.task2;whiteSpace=wrap;rectStyle=rounded;size=10;html=1;container=1;expand=0;collapsible=0;taskMarker=abstract;" vertex="1" parent="JyCHwe7BsAMhI3vTmwrP-27">
          <mxGeometry x="1620" y="145" width="120" height="80" as="geometry" />
        </mxCell>
        <mxCell id="JyCHwe7BsAMhI3vTmwrP-49" style="edgeStyle=orthogonalEdgeStyle;rounded=0;orthogonalLoop=1;jettySize=auto;html=1;entryX=0.5;entryY=0;entryDx=0;entryDy=0;entryPerimeter=0;" edge="1" parent="JyCHwe7BsAMhI3vTmwrP-27" source="JyCHwe7BsAMhI3vTmwrP-48" target="JyCHwe7BsAMhI3vTmwrP-31">
          <mxGeometry relative="1" as="geometry">
            <Array as="points">
              <mxPoint x="1680" y="20" />
              <mxPoint x="520" y="20" />
            </Array>
          </mxGeometry>
        </mxCell>
        <mxCell id="JyCHwe7BsAMhI3vTmwrP-45" style="edgeStyle=orthogonalEdgeStyle;rounded=0;orthogonalLoop=1;jettySize=auto;html=1;" edge="1" parent="JyCHwe7BsAMhI3vTmwrP-1" source="JyCHwe7BsAMhI3vTmwrP-33" target="JyCHwe7BsAMhI3vTmwrP-3">
          <mxGeometry relative="1" as="geometry" />
        </mxCell>
        <mxCell id="JyCHwe7BsAMhI3vTmwrP-46" style="edgeStyle=orthogonalEdgeStyle;rounded=0;orthogonalLoop=1;jettySize=auto;html=1;" edge="1" parent="JyCHwe7BsAMhI3vTmwrP-1" source="JyCHwe7BsAMhI3vTmwrP-9" target="JyCHwe7BsAMhI3vTmwrP-36">
          <mxGeometry relative="1" as="geometry" />
        </mxCell>
      </root>
    </mxGraphModel>
  </diagram>
</mxfile>
